# xmcd
#
# Track frame offsets: 
#        150
#        18526
#        36478
#        57614
#        84344
#        114218
#        133057
#        150750
#        167869
#        183367
#        198165
#        213537
#        236370
#        263173
#        295575
#        317170
#        331149
#
# Disc length: 4655 seconds
#
# Revision: 1
# Processed by: cddbd v1.5.2PL0 Copyright (c) Steve Scherf et al.
# Submitted via: ExactAudioCopy v1.0b3
#
DISCID=e7122d11
DTITLE=Freddie King - Taking Care of Business [CD6]
DYEAR=2009
DGENRE=Blues
TTITLE0=Gimme Some Lovin'
TTITLE1=Please Send Me Someone To Love
TTITLE2=That's All Right
TTITLE3=The Same Thing
TTITLE4=Tore Down (live)
TTITLE5=Dust My Broom (live)
TTITLE6=Can't Trust Your Neighbor
TTITLE7=You Was Wrong
TTITLE8=How Many More Years
TTITLE9=Ain't No Sunshine
TTITLE10=The Sky is Crying
TTITLE11=Love Her With a Feeling
TTITLE12=Somebody Got to Go
TTITLE13=Pulpwood
TTITLE14=Hide Away
TTITLE15=Lowdown in Lodi
TTITLE16=Reconsider Baby
EXTD=
EXTT0=
EXTT1=
EXTT2=
EXTT3=
EXTT4=
EXTT5=
EXTT6=
EXTT7=
EXTT8=
EXTT9=
EXTT10=
EXTT11=
EXTT12=
EXTT13=
EXTT14=
EXTT15=
EXTT16=
PLAYORDER=
